<?xml version="1.0" standalone="no"?>
<!DOCTYPE svg PUBLIC "-//W3C//DTD SVG 1.1//EN" "http://www.w3.org/Graphics/SVG/1.1/DTD/svg11.dtd" >
<svg xmlns="http://www.w3.org/2000/svg" xmlns:xlink="http://www.w3.org/1999/xlink" version="1.1" viewBox="-1 -150 1000 1000">
  <g transform="matrix(1 0 0 -1 0 850)">
   <path fill="currentColor"
d="M416 767q173 0 295 -122t123 -295t-123 -294t-295 -122t-294 122t-122 294t122 295t294 122zM156 350q0 -107 77 -183t183 -77q63 0 120 30l-350 350q-30 -57 -30 -120zM646 230q32 60 32 120q0 108 -77 184t-185 76q-61 0 -118 -30z" />
  </g>

</svg>
