<?xml version="1.0" standalone="no"?>
<!DOCTYPE svg PUBLIC "-//W3C//DTD SVG 1.1//EN" "http://www.w3.org/Graphics/SVG/1.1/DTD/svg11.dtd" >
<svg xmlns="http://www.w3.org/2000/svg" xmlns:xlink="http://www.w3.org/1999/xlink" version="1.1" viewBox="0 -150 1000 1000">
  <g transform="matrix(1 0 0 -1 0 850)">
   <path fill="currentColor"
d="M365 194q-21 0 -37 15t-15 37v209q0 21 15 36t37 15t36 -15t15 -36v-209q0 -21 -15 -37t-36 -15zM209 194q-21 0 -37 15t-16 37v209q0 21 16 36t37 15t36 -15t15 -36v-209q0 -21 -15 -37t-36 -15zM678 194q-22 0 -37 15t-16 37v209q0 21 16 36t37 15t36 -15t15 -36v-209
q0 -21 -15 -37t-36 -15zM521 194q-21 0 -37 15t-15 37v209q0 21 15 36t37 15t37 -15t15 -36v-209q0 -21 -15 -37t-37 -15zM885 506q44 0 74 -30t31 -73v-104q0 -44 -31 -75t-74 -30q0 -65 -46 -111t-110 -45h-573q-65 0 -110 45t-46 111v312q0 65 46 111t110 46h573
q65 0 110 -46t46 -111zM781 194v312q0 22 -15 37t-37 16h-573q-21 0 -37 -16t-15 -37v-312q0 -21 15 -36t37 -15h573q21 0 37 15t15 36z" />
  </g>

</svg>
