<?xml version="1.0" standalone="no"?>
<!DOCTYPE svg PUBLIC "-//W3C//DTD SVG 1.1//EN" "http://www.w3.org/Graphics/SVG/1.1/DTD/svg11.dtd" >
<svg viewBox="0 -150 1000 1000">
  <g transform="matrix(1 0 0 -1 0 850)">
   <path fill="currentColor"
d="M860 90q43 0 73 -31t30.5 -74t-30.5 -73t-73 -31h-365q-44 0 -74 31t-31 73t31 74t74 31h365zM860 454q43 0 73 -31t31 -73t-31 -73t-73 -31h-365q-44 0 -74 31t-31 73t31 73t74 31h365zM860 819q43 0 73 -31t31 -73q0 -44 -31 -74t-73 -31h-365q-42 0 -74 31t-31 74
t31 73t74 31h365zM0 -15q0 130 130 130t130 -130t-130 -130t-130 130zM0 350q0 130 130 130t130 -130t-130 -130t-130 130zM0 715q0 130 130 130t130 -130t-130 -130t-130 130z" />
  </g>

</svg>
