<?xml version="1.0" standalone="no"?>
<!DOCTYPE svg PUBLIC "-//W3C//DTD SVG 1.1//EN" "http://www.w3.org/Graphics/SVG/1.1/DTD/svg11.dtd" >
<svg xmlns="http://www.w3.org/2000/svg" xmlns:xlink="http://www.w3.org/1999/xlink" version="1.1" viewBox="-1 -150 1000 1000">
  <g transform="matrix(1 0 0 -1 0 850)">
   <path fill="currentColor"
d="M0 386q0 80 31 152t84 126t125 84t153 31t152 -31t126 -84t84 -126t31 -152q0 -123 -69 -223l191 -191q21 -21 21 -51t-21 -50t-51 -20.5t-50 20.5l-191 191q-100 -69 -223 -69q-80 0 -153 31t-125 83t-84 126t-31 153zM143 386q0 -103 73 -177t177 -73t176 73t74 177
t-74 176t-176 74t-177 -74t-73 -176zM214 368v36q0 7 6 12t12 5h125v125q0 8 5 13t13 5h36q7 0 12 -5t6 -13v-125h125q7 0 12 -5t5 -12v-36q0 -7 -5 -13t-12 -5h-125v-125q0 -7 -6 -13t-12 -5h-36q-7 0 -13 5t-5 13v125h-125q-7 0 -12 5t-6 13z" />
  </g>

</svg>
