<?xml version="1.0" encoding="UTF-8" standalone="no"?>
<!-- The icon can be used freely in both personal and commercial projects with no attribution required, but always appreciated. 
You may NOT sub-license, resell, rent, redistribute or otherwise transfer the icon without express written permission from iconmonstr.com -->

<svg
   xmlns:dc="http://purl.org/dc/elements/1.1/"
   xmlns:cc="http://creativecommons.org/ns#"
   xmlns:rdf="http://www.w3.org/1999/02/22-rdf-syntax-ns#"
   xmlns:svg="http://www.w3.org/2000/svg"
   xmlns="http://www.w3.org/2000/svg"
   xmlns:sodipodi="http://sodipodi.sourceforge.net/DTD/sodipodi-0.dtd"
   xmlns:inkscape="http://www.inkscape.org/namespaces/inkscape"
   version="1.1"
   x="0px"
   y="0px"
   width="2412"
   height="1422"
   viewBox="0 0 2412 1422"
   enable-background="new 0 0 512 512"
   xml:space="preserve"
   id="svg2"
   inkscape:version="0.48.4 r9939"
   sodipodi:docname="w3c-elements.svg"><metadata
     id="metadata9"><rdf:RDF><cc:Work
         rdf:about=""><dc:format>image/svg+xml</dc:format><dc:type
           rdf:resource="http://purl.org/dc/dcmitype/StillImage" /><dc:title /></cc:Work></rdf:RDF></metadata><defs
     id="defs7" /><sodipodi:namedview
     pagecolor="#ffffff"
     bordercolor="#666666"
     borderopacity="1"
     objecttolerance="10"
     gridtolerance="10"
     guidetolerance="10"
     inkscape:pageopacity="0"
     inkscape:pageshadow="2"
     inkscape:window-width="1360"
     inkscape:window-height="721"
     id="namedview5"
     showgrid="false"
     inkscape:zoom="0.3"
     inkscape:cx="1625.087"
     inkscape:cy="709.33337"
     inkscape:window-x="0"
     inkscape:window-y="0"
     inkscape:window-maximized="1"
     inkscape:current-layer="svg2"
     fit-margin-top="0"
     fit-margin-left="0"
     fit-margin-right="0"
     fit-margin-bottom="0" /><rect
     style="fill:#005a9c;fill-opacity:1;stroke:none"
     id="rect3827-3-2"
     width="24"
     height="400"
     x="752.34265"
     y="-685.07251"
     rx="0.027978934"
     ry="48.732979"
     transform="matrix(0.40548171,0.91410316,-0.91410316,0.40548171,0,0)" /><rect
     style="fill:#005a9c;fill-opacity:1;stroke:none"
     id="rect3827"
     width="1800"
     height="24"
     x="294.99997"
     y="700.66663"
     rx="2.0984201"
     ry="2.9239786" /><rect
     style="fill:#005a9c;fill-opacity:1;stroke:none"
     id="rect3827-3-2-3-0"
     width="24"
     height="400"
     x="566.96698"
     y="859.06409"
     rx="0.027978934"
     ry="48.732979"
     transform="matrix(-0.40548171,0.91410316,0.91410316,0.40548171,0,0)" /><g
     id="g3848"
     transform="translate(-4.0623644e-7,406.66665)"><path
       transform="matrix(0.72686605,0,0,0.93701442,694.71318,121.01112)"
       d="m -123.66101,197.42372 c 0,176.13203 -184.06409,318.91525 -411.11865,318.91525 -227.05457,0 -411.11866,-142.78322 -411.11866,-318.91525 0,-176.132029 184.06409,-318.91525 411.11866,-318.91525 227.05456,0 411.11865,142.783221 411.11865,318.91525 z"
       sodipodi:ry="318.91525"
       sodipodi:rx="411.11865"
       sodipodi:cy="197.42372"
       sodipodi:cx="-534.77966"
       id="path2982"
       style="fill:#ffffff;fill-opacity:1;stroke:#005a9c;stroke-width:17.38034058;stroke-linecap:square;stroke-linejoin:round;stroke-miterlimit:4;stroke-opacity:1;stroke-dasharray:none;stroke-dashoffset:0"
       sodipodi:type="arc" /><path
       inkscape:connector-curvature="0"
       style="fill:#005a9c;fill-opacity:1;stroke:#005a9c;stroke-opacity:1"
       d="m 382.77099,232.397 v -54.964 l 129.229,129.012 -129.229,129.01 v -54.964 h -96.773 V 232.397 h 96.773 z m -123.385,0 h -47.184 v 148.094 h 47.184 V 232.397 z m -73.794,0 h -35.388 v 148.094 h 35.388 V 232.397 z m -62,0 h -23.592 v 148.094 h 23.592 V 232.397 z"
       id="arrow-17-icon" /></g><rect
     style="fill:#005a9c;fill-opacity:1;stroke:none"
     id="rect3827-3-2-2"
     width="24"
     height="400"
     x="1532.3336"
     y="-1341.8854"
     rx="0.027978934"
     ry="48.732979"
     transform="matrix(0.40548171,0.91410316,-0.91410316,0.40548171,0,0)" /><rect
     style="fill:#005a9c;fill-opacity:1;stroke:none"
     id="rect3827-3-2-3"
     width="24"
     height="400"
     x="-229.26683"
     y="1519.6115"
     rx="0.027978934"
     ry="48.732979"
     transform="matrix(-0.40548171,0.91410316,0.91410316,0.40548171,0,0)" /><g
     id="g3852"
     transform="translate(899.99999,406.66665)"><path
       transform="matrix(0.72686605,0,0,0.93701442,1594.7132,121.01113)"
       d="m -123.66101,197.42372 c 0,176.13203 -184.06409,318.91525 -411.11865,318.91525 -227.05457,0 -411.11866,-142.78322 -411.11866,-318.91525 0,-176.132029 184.06409,-318.91525 411.11866,-318.91525 227.05456,0 411.11865,142.783221 411.11865,318.91525 z"
       sodipodi:ry="318.91525"
       sodipodi:rx="411.11865"
       sodipodi:cy="197.42372"
       sodipodi:cx="-534.77966"
       id="path2982-8"
       style="fill:#ffffff;fill-opacity:1;stroke:#005a9c;stroke-width:17.38034058;stroke-linecap:square;stroke-linejoin:round;stroke-miterlimit:4;stroke-opacity:1;stroke-dasharray:none;stroke-dashoffset:0"
       sodipodi:type="arc" /><path
       inkscape:connector-curvature="0"
       style="fill:#005a9c;fill-opacity:1"
       d="m 1324.5758,394.98398 h -153.3863 v -28.57703 h 153.3853 v 28.57703 z m 0,-55.64616 h -153.3863 v -28.57703 h 153.3853 v 28.57703 z m 0,-54.61357 h -153.3863 v -28.57704 h 153.3853 v 28.57704 z M 1133.4154,473.72229 V 221.18607 h 227.9819 c 0,0 0,127.16781 0,157.41184 0,48.53619 -66.7836,32.22823 -66.7836,32.22823 0,0 15.8212,62.89615 -30.4822,62.89615 -30.5422,0 -17.9873,0 -130.7161,0 z M 1399.5,377.12429 V 183.08335 h -304.1873 v 328.74166 h 169.3989 c 64.9318,0 134.7884,-76.21115 134.7884,-134.70072 z m -335.3039,95.75689 V 153.19082 h 296.2486 v -33.49039 h -329.5885 v 353.1817 h 33.3399 z"
       id="note-17-icon" /></g><rect
     style="fill:#005a9c;fill-opacity:1;stroke:none"
     id="rect3827-3"
     width="24"
     height="400"
     x="1194"
     y="507.33334"
     rx="0.027978934"
     ry="48.732979" /><g
     id="g3856"
     transform="translate(-900.00002,809.99999)"><path
       transform="matrix(0.72686605,0,0,0.93701443,2494.7132,121.01113)"
       d="m -123.66101,197.42372 c 0,176.13203 -184.06409,318.91525 -411.11865,318.91525 -227.05457,0 -411.11866,-142.78322 -411.11866,-318.91525 0,-176.132029 184.06409,-318.91525 411.11866,-318.91525 227.05456,0 411.11865,142.783221 411.11865,318.91525 z"
       sodipodi:ry="318.91525"
       sodipodi:rx="411.11865"
       sodipodi:cy="197.42372"
       sodipodi:cx="-534.77966"
       id="path2982-0"
       style="fill:#ffffff;fill-opacity:1;stroke:#005a9c;stroke-width:17.38034058;stroke-linecap:square;stroke-linejoin:round;stroke-miterlimit:4;stroke-opacity:1;stroke-dasharray:none;stroke-dashoffset:0"
       sodipodi:type="arc" /><path
       inkscape:connector-curvature="0"
       style="fill:#005a9c;fill-opacity:1"
       d="m 1942.5882,460.16304 13.4404,13.44036 -13.923,13.91651 c -3.7089,3.71261 -9.725,3.71261 -13.4357,0.003 -3.7126,-3.71169 -3.7126,-9.72775 0,-13.43851 l 13.9183,-13.92136 z m 259.8382,-342.67509 c -9.0112,-9.01211 -23.3863,-8.77357 -32.3994,0.24131 l -91.6768,91.67401 c -9.0121,9.01489 -9.2506,23.38638 -0.2376,32.39849 l 124.3138,-124.31381 z m -142.8575,177.21868 -54.2707,54.27073 c -28.3166,28.31656 -42.561,55.53252 -55.5076,93.42578 l 23.9997,23.99977 c 37.8933,-12.94945 65.1056,-27.19109 93.4221,-55.50397 l 54.2754,-54.27441 -61.9189,-61.9179 z m 222.5344,-160.62017 c -19.4831,-19.48312 -51.0739,-19.48312 -70.557,0 l -136.7475,136.74842 70.557,70.55793 136.7466,-136.74842 c 19.484,-19.48497 19.484,-51.07389 9e-4,-70.55793 z"
       id="pen-icon" /></g><g
     id="g3860"
     transform="translate(-1800,-5.8254673e-6)"><path
       transform="matrix(0.72686605,0,0,0.93701442,3394.7132,121.01113)"
       d="m -123.66101,197.42372 c 0,176.13203 -184.06409,318.91525 -411.11865,318.91525 -227.05457,0 -411.11866,-142.78322 -411.11866,-318.91525 0,-176.132029 184.06409,-318.91525 411.11866,-318.91525 227.05456,0 411.11865,142.783221 411.11865,318.91525 z"
       sodipodi:ry="318.91525"
       sodipodi:rx="411.11865"
       sodipodi:cy="197.42372"
       sodipodi:cx="-534.77966"
       id="path2982-4"
       style="fill:#ffffff;fill-opacity:1;stroke:#005a9c;stroke-width:17.38034058;stroke-linecap:square;stroke-linejoin:round;stroke-miterlimit:4;stroke-opacity:1;stroke-dasharray:none;stroke-dashoffset:0"
       sodipodi:type="arc" /><path
       inkscape:connector-curvature="0"
       style="fill:#005a9c;fill-opacity:1"
       d="m 3097.594,309.23701 -78.206,-33.75 c -3.533,-1.533 -7.279,-2.516 -11.11,-2.922 l -7.757,-0.816 -21.091,-18.576 5.568,-12.848 28.28,1.986 5.898,5.102 c 2.913,2.52 6.195,4.58 9.729,6.111 l 33.74,14.561 34.949,41.152 z m 20.894,1.43 -114.933,-135.334 h 22.34 c 15.33,0 29.891,6.719 39.839,18.383 l 99.753,116.951 h -46.999 z m -40.627,-83.371 c 1.684,-1.43 1.888,-3.955 0.456,-5.637 l -18,-21.168 c -1.431,-1.682 -3.956,-1.889 -5.638,-0.455 -1.684,1.43 -1.888,3.955 -0.456,5.637 l 18,21.168 c 1.433,1.685 3.961,1.885 5.638,0.455 z m -225.499,83.387 c 0.213,-0.002 0.424,-0.016 0.638,-0.016 h 37.44 l 25.812,-39.459 c 2.749,-4.203 7.208,-7.004 12.189,-7.648 9.435,-1.227 18.298,-6.406 23.913,-14.994 7.312,-11.176 7.138,-25.082 0.713,-35.82 l -16.623,25.412 c -8.101,2.197 -23.429,-7.83 -24.66,-16.131 l 16.624,-25.412 c -12.414,-1.584 -25.227,3.828 -32.537,15.004 -5.617,8.586 -6.814,18.781 -4.154,27.918 1.405,4.826 0.627,10.025 -2.125,14.232 l -37.23,56.914 z m 359.638,72.984 c 0,29.271 -23.729,53 -53,53 h -306 c -29.271,0 -53,-23.729 -53,-53 0,-29.271 23.729,-53 53,-53 h 306 c 29.271,0 53,23.729 53,53 z m -342.457,-0.002 c 0,-9.49 -7.697,-17.186 -17.188,-17.186 -9.491,0 -17.188,7.695 -17.188,17.186 0,9.494 7.697,17.188 17.188,17.188 9.491,0 17.188,-7.694 17.188,-17.188 z m 310.5,0 c 0,-9.49 -7.697,-17.186 -17.188,-17.186 -9.491,0 -17.188,7.695 -17.188,17.186 0,9.494 7.697,17.188 17.188,17.188 9.491,0 17.188,-7.694 17.188,-17.188 z"
       id="tools-9-icon" /></g></svg>