<?xml version="1.0" encoding="UTF-8" standalone="no"?>
<!-- Created with Inkscape (http://www.inkscape.org/) -->

<svg
   xmlns:dc="http://purl.org/dc/elements/1.1/"
   xmlns:cc="http://creativecommons.org/ns#"
   xmlns:rdf="http://www.w3.org/1999/02/22-rdf-syntax-ns#"
   xmlns:svg="http://www.w3.org/2000/svg"
   xmlns="http://www.w3.org/2000/svg"
   xmlns:xlink="http://www.w3.org/1999/xlink"
   xmlns:sodipodi="http://sodipodi.sourceforge.net/DTD/sodipodi-0.dtd"
   xmlns:inkscape="http://www.inkscape.org/namespaces/inkscape"
   width="100"
   height="59.200001"
   viewBox="0 0 100 59.200002"
   id="svg2"
   version="1.1"
   inkscape:version="0.91 r13725"
   sodipodi:docname="statusNode.svg">
  <defs
     id="defs4">
    <linearGradient
       inkscape:collect="always"
       id="linearGradient7614">
      <stop
         style="stop-color:#241f1c;stop-opacity:1;"
         offset="0"
         id="stop7616" />
      <stop
         style="stop-color:#483e37;stop-opacity:1"
         offset="1"
         id="stop7618" />
    </linearGradient>
    <inkscape:perspective
       sodipodi:type="inkscape:persp3d"
       inkscape:vp_x="0 : 526.18111 : 1"
       inkscape:vp_y="0 : 1000 : 0"
       inkscape:vp_z="744.09449 : 526.1811 : 1"
       inkscape:persp3d-origin="372.04724 : 350.78741 : 1"
       id="perspective4510" />
    <marker
       inkscape:stockid="Arrow1Lend"
       orient="auto"
       refY="0"
       refX="0"
       id="Arrow1Lend"
       style="overflow:visible"
       inkscape:isstock="true">
      <path
         id="path4174"
         d="M 0,0 5,-5 -12.5,0 5,5 0,0 Z"
         style="fill-rule:evenodd;stroke:#000000;stroke-width:1pt"
         transform="matrix(-0.8,0,0,-0.8,-10,0)"
         inkscape:connector-curvature="0" />
    </marker>
    <filter
       inkscape:collect="always"
       style="color-interpolation-filters:sRGB"
       id="filter6168"
       x="-0.39268577"
       width="1.7853715"
       y="-0.07760641"
       height="1.1552128">
      <feGaussianBlur
         inkscape:collect="always"
         stdDeviation="0.49514525"
         id="feGaussianBlur6170" />
    </filter>
    <linearGradient
       inkscape:collect="always"
       xlink:href="#linearGradient7614"
       id="linearGradient7620"
       x1="98.24379"
       y1="1022.2058"
       x2="103.64669"
       y2="1022.2058"
       gradientUnits="userSpaceOnUse" />
    <linearGradient
       inkscape:collect="always"
       xlink:href="#linearGradient7614"
       id="linearGradient7620-5"
       x1="98.24379"
       y1="1022.2058"
       x2="103.64669"
       y2="1022.2058"
       gradientUnits="userSpaceOnUse" />
    <filter
       inkscape:collect="always"
       style="color-interpolation-filters:sRGB"
       id="filter6168-4"
       x="-0.39268577"
       width="1.7853715"
       y="-0.07760641"
       height="1.1552128">
      <feGaussianBlur
         inkscape:collect="always"
         stdDeviation="0.49514525"
         id="feGaussianBlur6170-5" />
    </filter>
    <linearGradient
       inkscape:collect="always"
       xlink:href="#linearGradient7614"
       id="linearGradient7620-9"
       x1="98.24379"
       y1="1022.2058"
       x2="103.64669"
       y2="1022.2058"
       gradientUnits="userSpaceOnUse" />
    <filter
       inkscape:collect="always"
       style="color-interpolation-filters:sRGB"
       id="filter6168-9"
       x="-0.39268577"
       width="1.7853715"
       y="-0.07760641"
       height="1.1552128">
      <feGaussianBlur
         inkscape:collect="always"
         stdDeviation="0.49514525"
         id="feGaussianBlur6170-1" />
    </filter>
    <linearGradient
       inkscape:collect="always"
       xlink:href="#linearGradient7614"
       id="linearGradient7620-9-6"
       x1="98.24379"
       y1="1022.2058"
       x2="103.64669"
       y2="1022.2058"
       gradientUnits="userSpaceOnUse" />
    <filter
       inkscape:collect="always"
       style="color-interpolation-filters:sRGB"
       id="filter6168-9-2"
       x="-0.39268577"
       width="1.7853715"
       y="-0.07760641"
       height="1.1552128">
      <feGaussianBlur
         inkscape:collect="always"
         stdDeviation="0.49514525"
         id="feGaussianBlur6170-1-0" />
    </filter>
  </defs>
  <sodipodi:namedview
     id="base"
     pagecolor="#ffffff"
     bordercolor="#666666"
     borderopacity="1.0"
     inkscape:pageopacity="0.0"
     inkscape:pageshadow="2"
     inkscape:zoom="16"
     inkscape:cx="74.955955"
     inkscape:cy="64.320288"
     inkscape:document-units="px"
     inkscape:current-layer="layer1"
     showgrid="false"
     inkscape:window-width="1920"
     inkscape:window-height="1017"
     inkscape:window-x="1912"
     inkscape:window-y="-8"
     inkscape:window-maximized="1"
     units="px"
     showborder="true" />
  <metadata
     id="metadata7">
    <rdf:RDF>
      <cc:Work
         rdf:about="">
        <dc:format>image/svg+xml</dc:format>
        <dc:type
           rdf:resource="http://purl.org/dc/dcmitype/StillImage" />
        <dc:title />
      </cc:Work>
    </rdf:RDF>
  </metadata>
  <g
     inkscape:label="Ebene 1"
     inkscape:groupmode="layer"
     id="layer1"
     transform="translate(0,-993.16218)">
    <rect
       style="fill:#ffcc00;stroke:#000000;stroke-width:0.45543;stroke-miterlimit:4;stroke-dasharray:none;stroke-opacity:1"
       id="container-body"
       width="99.544006"
       height="58.772152"
       x="0.227715"
       y="993.48737"
       ry="4.0121193"
       rx="0"
       inkscape:label="#rect3352" />
    <g
       id="button-expand"
       transform="matrix(0.00962101,0,0,0.00962101,91.70408,994.40329)"
       style="fill:#0073cf;fill-opacity:1"
       inkscape:label="#g4489">
      <g
         id="g4446"
         style="fill:#0073cf;fill-opacity:1">
        <g
           id="_x31_0_5_"
           style="fill:#0073cf;fill-opacity:1">
          <g
             id="g4449"
             style="fill:#0073cf;fill-opacity:1">
            <path
               id="path4451"
               d="m 267.75,497.25 -126.78,0 130.031,-130.031 -27.043,-27.042 -129.82,129.82 0.612,-125.747 c 0,-10.557 -8.568,-19.125 -19.125,-19.125 -10.557,0 -19.125,8.568 -19.125,19.125 l 0,172.125 c 0,5.661 2.333,10.231 6.043,13.368 3.461,3.538 8.281,5.757 13.617,5.757 l 171.59,0 c 10.557,0 19.125,-8.568 19.125,-19.125 0,-10.557 -8.568,-19.125 -19.125,-19.125 z M 535.5,0 76.5,0 C 34.253,0 0,34.253 0,76.5 l 0,459 C 0,577.747 34.253,612 76.5,612 l 459,0 c 42.247,0 76.5,-34.253 76.5,-76.5 l 0,-459 C 612,34.253 577.747,0 535.5,0 Z m 38.25,535.5 c 0,21.114 -17.117,38.25 -38.25,38.25 l -459,0 c -21.133,0 -38.25,-17.117 -38.25,-38.25 l 0,-459 c 0,-21.114 17.117,-38.25 38.25,-38.25 l 459,0 c 21.133,0 38.25,17.117 38.25,38.25 l 0,459 z m -57.91,-459 -171.59,0 c -10.557,0 -19.125,8.568 -19.125,19.125 0,10.557 8.568,19.125 19.125,19.125 l 126.779,0 -130.03,130.031 27.042,27.043 129.821,-129.821 -0.612,125.747 c 0,10.557 8.568,19.125 19.125,19.125 10.557,0 19.125,-8.568 19.125,-19.125 l 0,-172.125 c 0,-5.661 -2.333,-10.232 -6.044,-13.388 -3.461,-3.538 -8.28,-5.737 -13.616,-5.737 z"
               inkscape:connector-curvature="0"
               style="fill:#0073cf;fill-opacity:1" />
          </g>
        </g>
      </g>
      <g
         id="g4453"
         style="fill:#0073cf;fill-opacity:1" />
      <g
         id="g4455"
         style="fill:#0073cf;fill-opacity:1" />
      <g
         id="g4457"
         style="fill:#0073cf;fill-opacity:1" />
      <g
         id="g4459"
         style="fill:#0073cf;fill-opacity:1" />
      <g
         id="g4461"
         style="fill:#0073cf;fill-opacity:1" />
      <g
         id="g4463"
         style="fill:#0073cf;fill-opacity:1" />
      <g
         id="g4465"
         style="fill:#0073cf;fill-opacity:1" />
      <g
         id="g4467"
         style="fill:#0073cf;fill-opacity:1" />
      <g
         id="g4469"
         style="fill:#0073cf;fill-opacity:1" />
      <g
         id="g4471"
         style="fill:#0073cf;fill-opacity:1" />
      <g
         id="g4473"
         style="fill:#0073cf;fill-opacity:1" />
      <g
         id="g4475"
         style="fill:#0073cf;fill-opacity:1" />
      <g
         id="g4477"
         style="fill:#0073cf;fill-opacity:1" />
      <g
         id="g4479"
         style="fill:#0073cf;fill-opacity:1" />
      <g
         id="g4481"
         style="fill:#0073cf;fill-opacity:1" />
    </g>
    <path
       id="icon-deletable-true"
       d="m 5.4326299,1010.6472 0,-0.5425 q 0.0155,-0.2945 0.23248,-0.4959 0.21698,-0.2015 0.51145,-0.2015 l 0.74394,0 0,-0.248 q 0,-0.31 0.21698,-0.5269 0.21698,-0.217 0.52695,-0.217 l 2.4797901,0 q 0.30997,0 0.52695,0.217 0.21698,0.2169 0.21698,0.5269 l 0,0.248 0.74394,0 q 0.29447,0 0.51145,0.2015 0.21698,0.2014 0.23248,0.4959 l 0,0.5425 q 0,0.2015 -0.14723,0.3487 -0.14723,0.1472 -0.34872,0.1472 l 0,4.2157 q 0,0.4184 -0.28672,0.7052 -0.28673,0.2867 -0.7052,0.2867 l -3.9676501,0 q -0.41846,0 -0.70519,-0.2867 -0.28673,-0.2868 -0.28672,-0.7052 l 0,-4.2157 q -0.20149,0 -0.34873,-0.1472 -0.14724,-0.1472 -0.14723,-0.3487 z m 0.49596,0 5.9514801,0 0,-0.496 q 0,-0.1085 -0.0697,-0.1782 -0.0697,-0.07 -0.17824,-0.07 l -5.4555201,0 q -0.10849,0 -0.17824,0.07 -0.0697,0.07 -0.0697,0.1782 l 0,0.496 z m 0.49595,4.7116 q 0,0.2014 0.14724,0.3487 0.14723,0.1472 0.34872,0.1472 l 3.9676501,0 q 0.20148,0 0.34873,-0.1472 0.14724,-0.1472 0.14723,-0.3487 l 0,-4.2157 -4.9595701,0 0,4.2157 z m 0.49596,-0.248 0,-3.2237 q 0,-0.1085 0.0697,-0.1783 0.0697,-0.07 0.17824,-0.07 l 0.49595,0 q 0.10849,0 0.17824,0.07 0.0697,0.07 0.0697,0.1783 l 0,3.2237 q 0,0.1085 -0.0697,0.1782 -0.0697,0.07 -0.17824,0.07 l -0.49595,0 q -0.10849,0 -0.17824,-0.07 -0.0697,-0.07 -0.0697,-0.1782 z m 0.24798,0 0.49595,0 0,-3.2237 -0.49595,0 0,3.2237 z m 0.24798,-5.7035 2.9757401,0 0,-0.248 q 0,-0.1085 -0.0697,-0.1782 -0.0697,-0.07 -0.17824,-0.07 l -2.4797801,0 q -0.10849,0 -0.17824,0.07 -0.0697,0.07 -0.0697,0.1782 l 0,0.248 z m 0.99191,5.7035 0,-3.2237 q 0,-0.1085 0.0697,-0.1783 0.0697,-0.07 0.17824,-0.07 l 0.49595,0 q 0.10849,0 0.17824,0.07 0.0697,0.07 0.0697,0.1783 l 0,3.2237 q 0,0.1085 -0.0697,0.1782 -0.0697,0.07 -0.17824,0.07 l -0.49595,0 q -0.10849,0 -0.17824,-0.07 -0.0697,-0.07 -0.0697,-0.1782 z m 0.24798,0 0.49596,0 0,-3.2237 -0.49596,0 0,3.2237 z m 1.23989,0 0,-3.2237 q 0,-0.1085 0.0697,-0.1783 0.0697,-0.07 0.1782401,-0.07 l 0.49595,0 q 0.10849,0 0.17824,0.07 0.0697,0.07 0.0697,0.1783 l 0,3.2237 q 0,0.1085 -0.0697,0.1782 -0.0697,0.07 -0.17824,0.07 l -0.49595,0 q -0.1085,0 -0.1782401,-0.07 -0.0697,-0.07 -0.0697,-0.1782 z m 0.2479801,0 0.49595,0 0,-3.2237 -0.49595,0 0,3.2237 z"
       inkscape:connector-curvature="0"
       style="fill:#ff0000;fill-opacity:1"
       inkscape:label="#path4252" />
    <g
       id="icon-onerror-next"
       transform="matrix(0.03124723,0,0,0.03124723,5.4326399,1023.3705)"
       style="fill:#ff0000;fill-opacity:1"
       inkscape:label="#g4266">
      <title
         id="title4268">Layer 1</title>
      <g
         id="layer1-5"
         style="fill:#ff0000;fill-opacity:1">
        <path
           d="m 53.586685,-3.66e-4 -0.4375,35.433075 124.015745,0 0,141.732271 -124.015745,0 0,35.4331 159.448825,0 0,-212.598447 -159.011325,0 z"
           id="path15809"
           inkscape:connector-curvature="0"
           style="fill:#ff0000;fill-opacity:1;fill-rule:evenodd;stroke-width:0.98030102px" />
        <path
           d="m -4.27e-4,124.01538 88.582687,0 -35.433075,35.43305 53.149595,0 53.1496,-53.1496 -53.1496,-53.149599 -53.149595,0 35.433075,35.433075 -88.582687,0 0,35.433074 z"
           id="path15815"
           stroke-miterlimit="4"
           inkscape:connector-curvature="0"
           style="fill:#ff0000;fill-opacity:1;fill-rule:nonzero;stroke-width:5;stroke-miterlimit:4;stroke-dashoffset:0" />
      </g>
    </g>
    <path
       style="fill:none;fill-opacity:1;fill-rule:evenodd;stroke:#939393;stroke-width:0.28617787;stroke-linecap:butt;stroke-linejoin:miter;stroke-miterlimit:4;stroke-dasharray:none;stroke-opacity:0.48809521"
       d="m 1.7461799,1001.7118 96.1820801,0 -0.40689,0.054"
       id="path4282"
       inkscape:connector-curvature="0" />
    <path
       style="fill:none;fill-rule:evenodd;stroke:#b0b0b0;stroke-width:0.15181001px;stroke-linecap:butt;stroke-linejoin:miter;stroke-opacity:0.83333333"
       d="m 16.43885,1001.8203 0,49.6093 0.0279,0.026"
       id="path4284"
       inkscape:connector-curvature="0" />
    <path
       id="icon-deletable-false"
       d="m 5.4326299,1010.6472 0,-0.5425 q 0.0155,-0.2945 0.23248,-0.4959 0.21698,-0.2015 0.51146,-0.2015 l 0.74393,0 0,-0.248 q 0,-0.31 0.21698,-0.5269 0.21698,-0.217 0.52696,-0.217 l 2.4797801,0 q 0.30997,0 0.52695,0.217 0.21698,0.2169 0.21698,0.5269 l 0,0.248 0.74394,0 q 0.29447,0 0.51145,0.2015 0.21698,0.2014 0.23248,0.4959 l 0,0.5425 q 0,0.2015 -0.14723,0.3487 -0.14723,0.1472 -0.34872,0.1472 l 0,4.2157 q 0,0.4184 -0.28672,0.7052 -0.28673,0.2867 -0.7052,0.2867 l -3.9676501,0 q -0.41846,0 -0.70519,-0.2867 -0.28673,-0.2868 -0.28672,-0.7052 l 0,-4.2157 q -0.20149,0 -0.34873,-0.1472 -0.14724,-0.1472 -0.14723,-0.3487 z m 0.49596,0 5.9514801,0 0,-0.496 q 0,-0.1085 -0.0697,-0.1782 -0.0697,-0.07 -0.17824,-0.07 l -5.4555201,0 q -0.10849,0 -0.17824,0.07 -0.0697,0.07 -0.0697,0.1782 l 0,0.496 z m 0.49595,4.7116 q 0,0.2014 0.14724,0.3487 0.14723,0.1472 0.34872,0.1472 l 3.9676501,0 q 0.20148,0 0.34873,-0.1472 0.14724,-0.1472 0.14723,-0.3487 l 0,-4.2157 -4.9595701,0 0,4.2157 z m 0.49596,-0.248 0,-3.2237 q 0,-0.1085 0.0697,-0.1783 0.0697,-0.07 0.17824,-0.07 l 0.49595,0 q 0.10849,0 0.17824,0.07 0.0697,0.07 0.0697,0.1783 l 0,3.2237 q 0,0.1085 -0.0697,0.1782 -0.0697,0.07 -0.17824,0.07 l -0.49595,0 q -0.1085,0 -0.17824,-0.07 -0.0697,-0.07 -0.0697,-0.1782 z m 0.24798,0 0.49596,0 0,-3.2237 -0.49596,0 0,3.2237 z m 0.24798,-5.7035 2.9757401,0 0,-0.248 q 0,-0.1085 -0.0697,-0.1782 -0.0697,-0.07 -0.17824,-0.07 l -2.4797801,0 q -0.10849,0 -0.17824,0.07 -0.0697,0.07 -0.0697,0.1782 l 0,0.248 z m 0.99191,5.7035 0,-3.2237 q 0,-0.1085 0.0697,-0.1783 0.0697,-0.07 0.17824,-0.07 l 0.49595,0 q 0.10849,0 0.17824,0.07 0.0697,0.07 0.0697,0.1783 l 0,3.2237 q 0,0.1085 -0.0697,0.1782 -0.0697,0.07 -0.17824,0.07 l -0.49595,0 q -0.1085,0 -0.17824,-0.07 -0.0697,-0.07 -0.0697,-0.1782 z m 0.24798,0 0.49596,0 0,-3.2237 -0.49596,0 0,3.2237 z m 1.23989,0 0,-3.2237 q 0,-0.1085 0.0697,-0.1783 0.0697,-0.07 0.1782401,-0.07 l 0.49595,0 q 0.10849,0 0.17824,0.07 0.0697,0.07 0.0697,0.1783 l 0,3.2237 q 0,0.1085 -0.0697,0.1782 -0.0697,0.07 -0.17824,0.07 l -0.49595,0 q -0.1085,0 -0.1782401,-0.07 -0.0697,-0.07 -0.0697,-0.1782 z m 0.2479801,0 0.49595,0 0,-3.2237 -0.49595,0 0,3.2237 z"
       inkscape:connector-curvature="0"
       style="fill:#aaaaaa;fill-opacity:0.58333333"
       inkscape:label="#path4252-0" />
    <g
       id="icon-onerror-stop"
       transform="matrix(0.03124723,0,0,0.03124723,5.4326399,1023.3705)"
       style="fill:#808080;fill-opacity:0.50595236"
       inkscape:label="#g4266">
      <title
         id="title4268-8">Layer 1</title>
      <g
         id="layer1-5-5"
         style="fill:#808080;fill-opacity:0.50595236">
        <path
           d="m 53.586685,-3.66e-4 -0.4375,35.433075 124.015745,0 0,141.732271 -124.015745,0 0,35.4331 159.448825,0 0,-212.598447 -159.011325,0 z"
           id="path15809-8"
           inkscape:connector-curvature="0"
           style="fill:#808080;fill-opacity:0.50595236;fill-rule:evenodd;stroke-width:0.98030102px" />
        <path
           d="m -4.27e-4,124.01538 88.582687,0 -35.433075,35.43305 53.149595,0 53.1496,-53.1496 -53.1496,-53.149599 -53.149595,0 35.433075,35.433075 -88.582687,0 0,35.433074 z"
           id="path15815-3"
           stroke-miterlimit="4"
           inkscape:connector-curvature="0"
           style="fill:#808080;fill-opacity:0.50595236;fill-rule:nonzero;stroke-width:5;stroke-miterlimit:4;stroke-dashoffset:0" />
      </g>
    </g>
    <g
       id="g4375"
       transform="matrix(0.01185014,0,0,0.0117873,18.095058,1040.4416)">
      <g
         id="g4329">
        <g
           id="g4331">
          <path
             id="path4333"
             d="m 475.095,131.992 c -0.032,-2.526 -0.833,-5.021 -2.568,-6.993 L 366.324,3.694 C 366.303,3.66 366.271,3.649 366.24,3.618 365.607,2.911 364.88,2.328 364.099,1.814 363.867,1.664 363.634,1.529 363.392,1.392 362.706,1.026 361.999,0.722 361.261,0.5 361.061,0.442 360.882,0.36 360.681,0.308 359.87,0.114 359.047,0 358.203,0 L 97.2,0 C 85.292,0 75.6,9.693 75.6,21.601 l 0,507.6 c 0,11.913 9.692,21.601 21.6,21.601 l 356.4,0 c 11.918,0 21.601,-9.688 21.601,-21.601 l 0,-395.999 c -0.001,-0.406 -0.064,-0.804 -0.106,-1.21 z M 346.074,233.561 c 0.158,-0.081 0.316,-0.179 0.475,-0.253 1.076,-0.551 2.205,-1.004 3.312,-1.484 0.801,-0.34 1.587,-0.725 2.394,-1.025 0.332,-0.127 0.686,-0.217 1.013,-0.338 17.967,-6.402 38.67,-4.276 55.371,7.589 27.147,19.301 33.539,57.063 14.249,84.232 -9.788,13.753 -24.321,22.17 -39.825,24.632 -1.771,0.28 -3.555,0.507 -5.315,0.628 -0.053,0 -0.095,0 -0.127,0 -30.475,1.951 -58.171,-19.454 -63.376,-50.214 -4.494,-26.518 9.122,-52.005 31.829,-63.767 z M 97.2,21.601 l 250.203,0 0,110.515 c 0,5.961 4.831,10.8 10.8,10.8 l 95.397,0 0,52.078 -22.127,-15.712 c -1.393,-0.999 -2.215,-0.472 -2.832,-0.076 -0.005,0.005 -0.016,0.011 -0.016,0.011 -0.042,0.021 -0.095,0.01 -0.127,0.037 -3.459,2.27 -7.225,3.976 -11.153,5.089 -0.258,0.074 -0.521,0.113 -0.785,0.182 -1.002,0.264 -2.004,0.52 -3.032,0.701 -5.358,0.968 -10.922,0.875 -16.29,-0.372 -10.726,-2.423 -20.139,-9.281 -25.818,-18.744 -0.517,-0.857 -1.535,-1.342 -2.553,-1.171 l -30.628,5.184 c -1.018,0.174 -1.841,0.968 -2.052,1.946 -2.235,10.8 -8.859,20.366 -18.188,26.193 -9.308,5.874 -20.862,7.707 -31.551,5.002 -0.665,-0.153 -1.625,-0.412 -2.632,0.999 l -12.445,17.489 c -0.037,-0.016 -0.082,-0.026 -0.113,-0.047 l -5.622,7.894 c -0.578,0.825 -0.588,1.985 -0.047,2.845 6.043,9.223 8.11,20.656 5.658,31.385 -2.473,10.752 -9.305,20.189 -18.766,25.832 -0.856,0.506 -1.345,1.561 -1.181,2.567 l 5.189,30.634 c 0.285,1.688 1.237,1.898 1.954,2.051 10.721,2.189 20.358,8.844 26.195,18.21 4.451,7.056 6.556,15.361 6.16,23.63 l -193.598,0 0,-345.152 z m 109.859,500.591 -83.586,0 0,-131.008 80.863,0 0,24.29 -51.121,0 0,27.222 48.21,0 0,24.1 -48.21,0 0,31.103 53.844,0 0,24.293 z m 89.234,0 -11.865,-23.715 c -4.852,-9.134 -7.963,-15.937 -11.651,-23.52 l -0.39,0 c -2.722,7.583 -6.031,14.386 -10.115,23.52 l -10.884,23.715 -33.816,0 37.897,-66.282 -36.537,-64.727 34.014,0 11.464,23.915 c 3.895,7.963 6.806,14.381 9.914,21.764 l 0.391,0 c 3.111,-8.353 5.632,-14.186 8.943,-21.764 l 11.074,-23.915 33.824,0 -36.936,63.951 38.876,67.062 -34.204,0 0,-0.004 z m 133.745,0 -83.584,0 0,-131.008 80.853,0 0,24.29 -51.121,0 0,27.222 48.21,0 0,24.1 -48.21,0 0,31.103 53.853,0 0,24.293 z"
             inkscape:connector-curvature="0" />
          <path
             id="path4335"
             d="m 244.69,251.121 c -3.768,-3.261 -6.075,-7.976 -6.339,-12.943 -0.261,-4.978 1.561,-9.919 4.973,-13.542 0.319,-0.335 0.393,-0.844 0.2,-1.253 l -4.147,-8.717 c 0.021,-0.016 0.042,-0.037 0.063,-0.042 l -1.883,-3.952 c -0.071,-0.153 -0.195,-0.246 -0.324,-0.341 -0.011,-0.016 -0.029,-0.034 -0.05,-0.05 -0.058,-0.047 -0.108,-0.092 -0.172,-0.124 -0.147,-0.068 -0.298,-0.113 -0.432,-0.103 -0.055,-0.005 -0.098,-0.026 -0.134,-0.032 -4.968,0.356 -9.938,-1.35 -13.624,-4.683 -3.699,-3.335 -5.919,-8.105 -6.064,-13.083 -0.011,-0.448 -0.319,-0.875 -0.762,-1.031 l -13.226,-4.693 c -0.728,-0.258 -1.015,0.077 -1.237,0.319 -0.005,0.005 -0.005,0.005 -0.005,0.016 -0.021,0.005 -0.037,0.011 -0.059,0.026 -1.221,1.411 -2.642,2.621 -4.213,3.586 -0.103,0.066 -0.208,0.119 -0.316,0.18 -0.401,0.242 -0.812,0.464 -1.237,0.675 -2.209,1.078 -4.635,1.727 -7.13,1.846 -4.962,0.271 -9.898,-1.551 -13.532,-4.962 -0.329,-0.309 -0.83,-0.388 -1.252,-0.195 l -12.675,6.032 c -0.422,0.206 -0.681,0.654 -0.649,1.097 0.359,4.973 -1.339,9.951 -4.669,13.634 -3.322,3.705 -8.121,5.922 -13.102,6.064 -0.311,0.026 -0.759,0.026 -1.02,0.76 l -3.251,9.139 c -0.01,0 -0.037,0 -0.053,-0.011 l -1.468,4.129 c -0.15,0.433 -0.006,0.937 0.334,1.25 3.763,3.259 6.075,7.974 6.328,12.936 0.253,4.981 -1.55,9.922 -4.967,13.545 -0.309,0.33 -0.388,0.841 -0.195,1.253 l 6.043,12.685 c 0.334,0.702 0.767,0.665 1.102,0.646 4.925,-0.366 9.935,1.339 13.624,4.688 3.705,3.322 5.906,8.096 6.069,13.073 0.011,0.454 0.314,0.87 0.744,1.034 l 13.226,4.683 c 0.087,0.031 0.166,0.011 0.253,0.011 0.596,0.142 0.865,-0.133 1.055,-0.369 0.831,-0.955 1.748,-1.825 2.753,-2.584 0.05,-0.032 0.098,-0.063 0.134,-0.096 0.433,-0.337 0.886,-0.633 1.339,-0.917 0.346,-0.211 0.715,-0.406 1.076,-0.591 0.166,-0.095 0.34,-0.189 0.517,-0.274 2.194,-1.065 4.601,-1.698 7.063,-1.824 4.952,-0.27 9.92,1.55 13.55,4.968 0.232,0.205 0.548,0.517 1.252,0.189 l 12.678,-6.033 c 0.018,-0.005 0.023,-0.01 0.034,-0.016 l 0.031,-0.016 c 0.433,-0.206 0.675,-0.639 0.649,-1.103 -0.361,-4.968 1.345,-9.935 4.68,-13.634 1.94,-2.139 4.374,-3.773 7.042,-4.807 0.129,-0.047 0.274,-0.113 0.412,-0.161 0.227,-0.082 0.464,-0.14 0.696,-0.222 0.382,-0.119 0.773,-0.237 1.15,-0.34 0.065,-0.011 0.113,-0.021 0.179,-0.037 1.149,-0.261 2.336,-0.427 3.531,-0.459 0.464,-0.023 0.87,-0.309 1.031,-0.762 l 4.704,-13.231 c 0.152,-0.437 0.023,-0.916 -0.328,-1.231 z m -27.999,-1.371 c -2.56,7.188 -7.842,12.641 -14.273,15.623 -0.738,0.34 -1.479,0.664 -2.23,0.928 -0.021,0.006 -0.042,0.016 -0.063,0.021 -13.004,4.606 -27.686,-1.279 -33.75,-14.006 -5.215,-10.969 -2.436,-23.733 5.973,-31.643 0.058,-0.05 0.113,-0.122 0.179,-0.174 0.393,-0.367 0.825,-0.707 1.252,-1.052 0.311,-0.25 0.593,-0.514 0.912,-0.746 0.124,-0.092 0.269,-0.174 0.398,-0.269 7.016,-4.997 16.281,-6.632 25.009,-3.528 14.185,5.033 21.627,20.656 16.593,34.846 z"
             inkscape:connector-curvature="0" />
          <path
             id="path4337"
             d="m 226.913,133.785 c 0.248,4.973 -1.55,9.919 -4.967,13.544 -0.309,0.327 -0.39,0.841 -0.201,1.258 l 6.044,12.672 c 0.334,0.704 0.772,0.675 1.107,0.653 4.922,-0.372 9.935,1.334 13.624,4.683 3.705,3.325 5.906,8.1 6.064,13.078 0.016,0.454 0.316,0.87 0.749,1.031 l 13.226,4.693 c 0.087,0.021 0.167,0 0.253,0.011 0.593,0.14 0.859,-0.14 1.052,-0.372 0.833,-0.962 1.751,-1.832 2.755,-2.586 0.042,-0.032 0.098,-0.061 0.134,-0.092 0.433,-0.33 0.876,-0.638 1.34,-0.923 0.345,-0.211 0.717,-0.406 1.076,-0.588 0.166,-0.098 0.335,-0.195 0.517,-0.277 2.193,-1.068 4.59,-1.696 7.059,-1.819 4.957,-0.277 9.93,1.545 13.547,4.967 0.227,0.206 0.56,0.525 1.261,0.19 l 12.677,-6.033 c 0.011,0 0.021,-0.016 0.026,-0.016 l 0.043,-0.016 c 0.422,-0.206 0.675,-0.639 0.643,-1.097 -0.358,-4.973 1.351,-9.94 4.684,-13.634 1.94,-2.144 4.377,-3.781 7.045,-4.812 0.127,-0.053 0.274,-0.113 0.406,-0.155 0.227,-0.087 0.469,-0.147 0.701,-0.227 0.374,-0.113 0.76,-0.237 1.149,-0.335 0.053,-0.011 0.111,-0.016 0.174,-0.04 1.155,-0.264 2.337,-0.424 3.533,-0.458 0.47,-0.021 0.87,-0.311 1.028,-0.759 l 4.704,-13.231 c 0.147,-0.438 0.021,-0.923 -0.332,-1.231 -3.775,-3.262 -6.075,-7.981 -6.339,-12.949 -0.248,-4.979 1.556,-9.914 4.973,-13.542 0.316,-0.33 0.391,-0.838 0.19,-1.255 l -4.135,-8.709 c 0.021,-0.016 0.032,-0.037 0.063,-0.042 l -1.888,-3.952 c -0.068,-0.148 -0.2,-0.245 -0.316,-0.343 -0.016,-0.016 -0.032,-0.032 -0.053,-0.048 -0.063,-0.042 -0.111,-0.092 -0.174,-0.124 -0.148,-0.076 -0.301,-0.108 -0.433,-0.108 -0.059,-0.005 -0.101,-0.032 -0.132,-0.032 -4.973,0.351 -9.94,-1.35 -13.627,-4.678 -3.702,-3.338 -5.917,-8.105 -6.069,-13.088 -0.006,-0.454 -0.312,-0.87 -0.754,-1.034 l -13.227,-4.69 c -0.738,-0.261 -1.022,0.076 -1.244,0.319 0,0.005 0,0.005 0,0.005 -0.021,0.011 -0.037,0.016 -0.058,0.031 -1.219,1.403 -2.647,2.619 -4.214,3.586 -0.105,0.059 -0.216,0.119 -0.316,0.18 -0.406,0.242 -0.812,0.464 -1.239,0.675 -2.21,1.079 -4.638,1.728 -7.122,1.851 -4.967,0.264 -9.903,-1.556 -13.537,-4.967 -0.335,-0.309 -0.833,-0.396 -1.252,-0.195 l -12.68,6.038 c -0.422,0.2 -0.675,0.648 -0.644,1.089 0.356,4.976 -1.34,9.954 -4.675,13.643 -3.317,3.704 -8.116,5.922 -13.097,6.057 -0.314,0.023 -0.762,0.023 -1.021,0.767 l -3.251,9.136 c -0.011,-0.005 -0.037,0 -0.053,-0.005 l -1.474,4.126 c -0.147,0.438 -0.01,0.936 0.34,1.247 3.777,3.25 6.09,7.964 6.337,12.932 z m 28.793,-22.394 c 0.066,-0.047 0.114,-0.113 0.172,-0.166 0.4,-0.369 0.833,-0.709 1.26,-1.06 0.311,-0.242 0.598,-0.506 0.912,-0.743 0.129,-0.087 0.269,-0.174 0.398,-0.272 7.017,-5 16.276,-6.631 25.004,-3.531 14.186,5.039 21.621,20.664 16.585,34.853 -2.558,7.19 -7.836,12.641 -14.27,15.622 -0.743,0.338 -1.477,0.662 -2.23,0.929 -0.021,0 -0.042,0.01 -0.063,0.016 -13.004,4.611 -27.686,-1.281 -33.739,-14.009 -5.224,-10.962 -2.443,-23.718 5.971,-31.639 z"
             inkscape:connector-curvature="0" />
        </g>
      </g>
      <g
         id="g4339" />
      <g
         id="g4341" />
      <g
         id="g4343" />
      <g
         id="g4345" />
      <g
         id="g4347" />
      <g
         id="g4349" />
      <g
         id="g4351" />
      <g
         id="g4353" />
      <g
         id="g4355" />
      <g
         id="g4357" />
      <g
         id="g4359" />
      <g
         id="g4361" />
      <g
         id="g4363" />
      <g
         id="g4365" />
      <g
         id="g4367" />
    </g>
    <path
       id="path4410"
       d="m 18.963492,1013.2932 0,-4.2186 0.96656,-0.9363 2.67816,0 0,1.7921 -0.44301,0 0,-1.3391 -1.9029,0 0,0.8055 -0.8558,0 0,3.4433 2.15461,0 0,0.4531 -2.59762,0 z m 1.92304,-1.0672 0,-0.8357 1.07731,0 0,-1.0672 0.8256,0 0,1.0672 1.06724,0 0,0.8357 -1.06724,0 0,1.0672 -0.8256,0 0,-1.0672 -1.07731,0 z"
       inkscape:connector-curvature="0" />
    <g
       id="g4420"
       transform="matrix(0.00984007,0,0,0.00984007,18.869472,1023.3883)">
      <path
         id="path4422"
         d="M 507.268,50.31 461.378,4.4 C 458.56,1.588 454.732,0 450.74,0 l 0,0 c -3.992,0 -7.82,1.594 -10.639,4.406 L 172.532,272.484 c -1.441,1.447 -2.586,3.179 -3.338,5.084 l -29.775,75.184 c -2.202,5.566 -0.896,11.896 3.323,16.146 2.88,2.889 6.729,4.427 10.653,4.427 1.84,0 3.692,-0.341 5.472,-1.033 l 75.428,-29.532 c 1.932,-0.764 3.687,-1.902 5.146,-3.37 L 507.268,71.555 c 5.871,-5.856 5.871,-15.373 0,-21.245 z M 220.412,315.904 180.095,331.698 196.003,291.527 450.751,36.296 475.387,60.937 220.412,315.904 Z"
         inkscape:connector-curvature="0" />
      <path
         id="path4424"
         d="m 386.919,265.958 c -13.28,0 -24.048,10.768 -24.048,24.049 l 0,230.815 -315.103,0 0,-432.407 241.643,0 c 13.28,0 24.048,-10.768 24.048,-24.048 0,-13.281 -10.768,-24.049 -24.048,-24.049 l -265.691,0 c -13.281,0 -24.048,10.768 -24.048,24.049 l 0,480.503 c 0,13.281 10.768,24.049 24.048,24.049 l 363.2,0 c 13.281,0 24.049,-10.768 24.049,-24.049 l 0,-254.858 c -10e-4,-13.287 -10.768,-24.054 -24.05,-24.054 z"
         inkscape:connector-curvature="0" />
    </g>
    <path
       style="fill:none;fill-rule:evenodd;stroke:#000000;stroke-width:0.15181001px;stroke-linecap:butt;stroke-linejoin:miter;stroke-opacity:1"
       d="m 16.92682,1018.7037 c 81.54365,0 81.54365,-0.1084 81.54365,-0.1084"
       id="path4435"
       inkscape:connector-curvature="0" />
    <path
       style="fill:none;fill-rule:evenodd;stroke:#000000;stroke-width:0.15181001px;stroke-linecap:butt;stroke-linejoin:miter;stroke-opacity:1"
       d="m 17.25212,1035.1431 c 81.21835,0 81.43522,0.1084 81.43522,0.1084"
       id="path4437"
       inkscape:connector-curvature="0" />
    <g
       id="g4441-4-4"
       transform="matrix(0.00527316,0,0,-0.00527316,52.065386,1012.1324)"
       style="fill:#00b006;fill-opacity:1" />
    <text
       xml:space="preserve"
       style="font-style:normal;font-weight:normal;font-size:40px;line-height:125%;font-family:sans-serif;letter-spacing:0px;word-spacing:0px;fill:#00b006;fill-opacity:1;stroke:none;stroke-width:1px;stroke-linecap:butt;stroke-linejoin:miter;stroke-opacity:1"
       x="27.673462"
       y="1012.7859"
       id="text-action-new-0"
       sodipodi:linespacing="125%"
       inkscape:label="#text4673"><tspan
         sodipodi:role="line"
         id="tspan4675"
         x="27.673462"
         y="1012.7859"
         style="font-size:6.25px;fill:#00b006;fill-opacity:1">⚙</tspan></text>
    <text
       xml:space="preserve"
       style="font-style:normal;font-weight:normal;font-size:40px;line-height:125%;font-family:sans-serif;letter-spacing:0px;word-spacing:0px;fill:#00b006;fill-opacity:1;stroke:none;stroke-width:1px;stroke-linecap:butt;stroke-linejoin:miter;stroke-opacity:1"
       x="81.923462"
       y="1012.7859"
       id="text-action-new-7"
       sodipodi:linespacing="125%"
       inkscape:label="#text4673-0"><tspan
         sodipodi:role="line"
         id="tspan4675-6"
         x="81.923462"
         y="1012.7859"
         style="font-size:6.25px;fill:#00b006;fill-opacity:1">⚙</tspan></text>
    <text
       xml:space="preserve"
       style="font-style:normal;font-weight:normal;font-size:40px;line-height:125%;font-family:sans-serif;letter-spacing:0px;word-spacing:0px;fill:#00b006;fill-opacity:1;stroke:none;stroke-width:1px;stroke-linecap:butt;stroke-linejoin:miter;stroke-opacity:1"
       x="74.173462"
       y="1012.7859"
       id="text-action-new-6"
       sodipodi:linespacing="125%"
       inkscape:label="#text4673-5"><tspan
         sodipodi:role="line"
         id="tspan4675-0"
         x="74.173462"
         y="1012.7859"
         style="font-size:6.25px;fill:#00b006;fill-opacity:1">⚙</tspan></text>
    <text
       xml:space="preserve"
       style="font-style:normal;font-weight:normal;font-size:40px;line-height:125%;font-family:sans-serif;letter-spacing:0px;word-spacing:0px;fill:#00b006;fill-opacity:1;stroke:none;stroke-width:1px;stroke-linecap:butt;stroke-linejoin:miter;stroke-opacity:1"
       x="66.423462"
       y="1012.7859"
       id="text-action-new-5"
       sodipodi:linespacing="125%"
       inkscape:label="#text4673-3"><tspan
         sodipodi:role="line"
         id="tspan4675-8"
         x="66.423462"
         y="1012.7859"
         style="font-size:6.25px;fill:#00b006;fill-opacity:1">⚙</tspan></text>
    <text
       xml:space="preserve"
       style="font-style:normal;font-weight:normal;font-size:40px;line-height:125%;font-family:sans-serif;letter-spacing:0px;word-spacing:0px;fill:#00b006;fill-opacity:1;stroke:none;stroke-width:1px;stroke-linecap:butt;stroke-linejoin:miter;stroke-opacity:1"
       x="58.673462"
       y="1012.7859"
       id="text-action-new-4"
       sodipodi:linespacing="125%"
       inkscape:label="#text4673-03"><tspan
         sodipodi:role="line"
         id="tspan4675-07"
         x="58.673462"
         y="1012.7859"
         style="font-size:6.25px;fill:#00b006;fill-opacity:1">⚙</tspan></text>
    <text
       xml:space="preserve"
       style="font-style:normal;font-weight:normal;font-size:40px;line-height:125%;font-family:sans-serif;letter-spacing:0px;word-spacing:0px;fill:#00b006;fill-opacity:1;stroke:none;stroke-width:1px;stroke-linecap:butt;stroke-linejoin:miter;stroke-opacity:1"
       x="50.923462"
       y="1012.7859"
       id="text-action-new-3"
       sodipodi:linespacing="125%"
       inkscape:label="#text4673-2"><tspan
         sodipodi:role="line"
         id="tspan4675-3"
         x="50.923462"
         y="1012.7859"
         style="font-size:6.25px;fill:#00b006;fill-opacity:1">⚙</tspan></text>
    <text
       xml:space="preserve"
       style="font-style:normal;font-weight:normal;font-size:40px;line-height:125%;font-family:sans-serif;letter-spacing:0px;word-spacing:0px;fill:#00b006;fill-opacity:1;stroke:none;stroke-width:1px;stroke-linecap:butt;stroke-linejoin:miter;stroke-opacity:1"
       x="43.173462"
       y="1012.7859"
       id="text-action-new-2"
       sodipodi:linespacing="125%"
       inkscape:label="#text4673-4"><tspan
         sodipodi:role="line"
         id="tspan4675-1"
         x="43.173462"
         y="1012.7859"
         style="font-size:6.25px;fill:#00b006;fill-opacity:1">⚙</tspan></text>
    <text
       xml:space="preserve"
       style="font-style:normal;font-weight:normal;font-size:40px;line-height:125%;font-family:sans-serif;letter-spacing:0px;word-spacing:0px;fill:#00b006;fill-opacity:1;stroke:none;stroke-width:1px;stroke-linecap:butt;stroke-linejoin:miter;stroke-opacity:1"
       x="35.423462"
       y="1012.7859"
       id="text-action-new-1"
       sodipodi:linespacing="125%"
       inkscape:label="#text4673-54"><tspan
         sodipodi:role="line"
         id="tspan4675-4"
         x="35.423462"
         y="1012.7859"
         style="font-size:6.25px;fill:#00b006;fill-opacity:1">⚙</tspan></text>
    <text
       xml:space="preserve"
       style="font-style:normal;font-weight:normal;font-size:40px;line-height:125%;font-family:sans-serif;letter-spacing:0px;word-spacing:0px;fill:#00b006;fill-opacity:1;stroke:none;stroke-width:1px;stroke-linecap:butt;stroke-linejoin:miter;stroke-opacity:1"
       x="27.673462"
       y="1029.2859"
       id="text-action-edit-0"
       sodipodi:linespacing="125%"
       inkscape:label="#text4673"><tspan
         sodipodi:role="line"
         id="tspan4675-072"
         x="27.673462"
         y="1029.2859"
         style="font-size:6.25px;fill:#00b006;fill-opacity:1">⚙</tspan></text>
    <text
       xml:space="preserve"
       style="font-style:normal;font-weight:normal;font-size:40px;line-height:125%;font-family:sans-serif;letter-spacing:0px;word-spacing:0px;fill:#00b006;fill-opacity:1;stroke:none;stroke-width:1px;stroke-linecap:butt;stroke-linejoin:miter;stroke-opacity:1"
       x="58.673462"
       y="1029.2859"
       id="text-action-edit-4"
       sodipodi:linespacing="125%"
       inkscape:label="#text4673-03"><tspan
         sodipodi:role="line"
         id="tspan4675-07-5"
         x="58.673462"
         y="1029.2859"
         style="font-size:6.25px;fill:#00b006;fill-opacity:1">⚙</tspan></text>
    <text
       xml:space="preserve"
       style="font-style:normal;font-weight:normal;font-size:40px;line-height:125%;font-family:sans-serif;letter-spacing:0px;word-spacing:0px;fill:#00b006;fill-opacity:1;stroke:none;stroke-width:1px;stroke-linecap:butt;stroke-linejoin:miter;stroke-opacity:1"
       x="50.923462"
       y="1029.2859"
       id="text-action-edit-3"
       sodipodi:linespacing="125%"
       inkscape:label="#text4673-2"><tspan
         sodipodi:role="line"
         id="tspan4675-3-8"
         x="50.923462"
         y="1029.2859"
         style="font-size:6.25px;fill:#00b006;fill-opacity:1">⚙</tspan></text>
    <text
       xml:space="preserve"
       style="font-style:normal;font-weight:normal;font-size:40px;line-height:125%;font-family:sans-serif;letter-spacing:0px;word-spacing:0px;fill:#00b006;fill-opacity:1;stroke:none;stroke-width:1px;stroke-linecap:butt;stroke-linejoin:miter;stroke-opacity:1"
       x="43.173462"
       y="1029.2859"
       id="text-action-edit-2"
       sodipodi:linespacing="125%"
       inkscape:label="#text4673-4"><tspan
         sodipodi:role="line"
         id="tspan4675-1-6"
         x="43.173462"
         y="1029.2859"
         style="font-size:6.25px;fill:#00b006;fill-opacity:1">⚙</tspan></text>
    <text
       xml:space="preserve"
       style="font-style:normal;font-weight:normal;font-size:40px;line-height:125%;font-family:sans-serif;letter-spacing:0px;word-spacing:0px;fill:#00b006;fill-opacity:1;stroke:none;stroke-width:1px;stroke-linecap:butt;stroke-linejoin:miter;stroke-opacity:1"
       x="35.423462"
       y="1029.2859"
       id="text-action-edit-1"
       sodipodi:linespacing="125%"
       inkscape:label="#text4673-54"><tspan
         sodipodi:role="line"
         id="tspan4675-4-1"
         x="35.423462"
         y="1029.2859"
         style="font-size:6.25px;fill:#00b006;fill-opacity:1">⚙</tspan></text>
    <text
       xml:space="preserve"
       style="font-style:normal;font-weight:normal;font-size:40px;line-height:125%;font-family:sans-serif;letter-spacing:0px;word-spacing:0px;fill:#00b006;fill-opacity:1;stroke:none;stroke-width:1px;stroke-linecap:butt;stroke-linejoin:miter;stroke-opacity:1"
       x="27.673462"
       y="1043.3159"
       id="text-action-run-0"
       sodipodi:linespacing="125%"
       inkscape:label="#text4673"><tspan
         sodipodi:role="line"
         id="tspan4675-32"
         x="27.673462"
         y="1043.3159"
         style="font-size:6.25px;fill:#00b006;fill-opacity:1">⚙</tspan></text>
    <text
       xml:space="preserve"
       style="font-style:normal;font-weight:normal;font-size:40px;line-height:125%;font-family:sans-serif;letter-spacing:0px;word-spacing:0px;fill:#00b006;fill-opacity:1;stroke:none;stroke-width:1px;stroke-linecap:butt;stroke-linejoin:miter;stroke-opacity:1"
       x="66.423462"
       y="1043.3159"
       id="text-action-run-10"
       sodipodi:linespacing="125%"
       inkscape:label="#text4673-3"><tspan
         sodipodi:role="line"
         id="tspan4675-8-7"
         x="66.423462"
         y="1043.3159"
         style="font-size:6.25px;fill:#00b006;fill-opacity:1">⚙</tspan></text>
    <text
       xml:space="preserve"
       style="font-style:normal;font-weight:normal;font-size:40px;line-height:125%;font-family:sans-serif;letter-spacing:0px;word-spacing:0px;fill:#00b006;fill-opacity:1;stroke:none;stroke-width:1px;stroke-linecap:butt;stroke-linejoin:miter;stroke-opacity:1"
       x="58.673462"
       y="1043.3159"
       id="text-action-run-8"
       sodipodi:linespacing="125%"
       inkscape:label="#text4673-03"><tspan
         sodipodi:role="line"
         id="tspan4675-07-2"
         x="58.673462"
         y="1043.3159"
         style="font-size:6.25px;fill:#00b006;fill-opacity:1">⚙</tspan></text>
    <text
       xml:space="preserve"
       style="font-style:normal;font-weight:normal;font-size:40px;line-height:125%;font-family:sans-serif;letter-spacing:0px;word-spacing:0px;fill:#00b006;fill-opacity:1;stroke:none;stroke-width:1px;stroke-linecap:butt;stroke-linejoin:miter;stroke-opacity:1"
       x="50.923462"
       y="1043.3159"
       id="text-action-run-6"
       sodipodi:linespacing="125%"
       inkscape:label="#text4673-2"><tspan
         sodipodi:role="line"
         id="tspan4675-3-0"
         x="50.923462"
         y="1043.3159"
         style="font-size:6.25px;fill:#00b006;fill-opacity:1">⚙</tspan></text>
    <text
       xml:space="preserve"
       style="font-style:normal;font-weight:normal;font-size:40px;line-height:125%;font-family:sans-serif;letter-spacing:0px;word-spacing:0px;fill:#00b006;fill-opacity:1;stroke:none;stroke-width:1px;stroke-linecap:butt;stroke-linejoin:miter;stroke-opacity:1"
       x="43.173462"
       y="1043.3159"
       id="text-action-run-4"
       sodipodi:linespacing="125%"
       inkscape:label="#text4673-4"><tspan
         sodipodi:role="line"
         id="tspan4675-1-3"
         x="43.173462"
         y="1043.3159"
         style="font-size:6.25px;fill:#00b006;fill-opacity:1">⚙</tspan></text>
    <text
       xml:space="preserve"
       style="font-style:normal;font-weight:normal;font-size:40px;line-height:125%;font-family:sans-serif;letter-spacing:0px;word-spacing:0px;fill:#00b006;fill-opacity:1;stroke:none;stroke-width:1px;stroke-linecap:butt;stroke-linejoin:miter;stroke-opacity:1"
       x="35.423462"
       y="1043.3159"
       id="text-action-run-2"
       sodipodi:linespacing="125%"
       inkscape:label="#text4673-54"><tspan
         sodipodi:role="line"
         id="tspan4675-4-9"
         x="35.423462"
         y="1043.3159"
         style="font-size:6.25px;fill:#00b006;fill-opacity:1">⚙</tspan></text>
    <text
       xml:space="preserve"
       style="font-style:normal;font-weight:normal;font-size:40px;line-height:125%;font-family:sans-serif;letter-spacing:0px;word-spacing:0px;fill:#00b006;fill-opacity:1;stroke:none;stroke-width:1px;stroke-linecap:butt;stroke-linejoin:miter;stroke-opacity:1"
       x="27.673462"
       y="1049.0559"
       id="text-action-run-1"
       sodipodi:linespacing="125%"
       inkscape:label="#text4673"><tspan
         sodipodi:role="line"
         id="tspan4675-32-7"
         x="27.673462"
         y="1049.0559"
         style="font-size:6.25px;fill:#00b006;fill-opacity:1">⚙</tspan></text>
    <text
       xml:space="preserve"
       style="font-style:normal;font-weight:normal;font-size:40px;line-height:125%;font-family:sans-serif;letter-spacing:0px;word-spacing:0px;fill:#00b006;fill-opacity:1;stroke:none;stroke-width:1px;stroke-linecap:butt;stroke-linejoin:miter;stroke-opacity:1"
       x="58.673462"
       y="1049.0559"
       id="text-action-run-9"
       sodipodi:linespacing="125%"
       inkscape:label="#text4673-03"><tspan
         sodipodi:role="line"
         id="tspan4675-07-2-9"
         x="58.673462"
         y="1049.0559"
         style="font-size:6.25px;fill:#00b006;fill-opacity:1">⚙</tspan></text>
    <text
       xml:space="preserve"
       style="font-style:normal;font-weight:normal;font-size:40px;line-height:125%;font-family:sans-serif;letter-spacing:0px;word-spacing:0px;fill:#00b006;fill-opacity:1;stroke:none;stroke-width:1px;stroke-linecap:butt;stroke-linejoin:miter;stroke-opacity:1"
       x="50.923462"
       y="1049.0559"
       id="text-action-run-7"
       sodipodi:linespacing="125%"
       inkscape:label="#text4673-2"><tspan
         sodipodi:role="line"
         id="tspan4675-3-0-2"
         x="50.923462"
         y="1049.0559"
         style="font-size:6.25px;fill:#00b006;fill-opacity:1">⚙</tspan></text>
    <text
       xml:space="preserve"
       style="font-style:normal;font-weight:normal;font-size:40px;line-height:125%;font-family:sans-serif;letter-spacing:0px;word-spacing:0px;fill:#00b006;fill-opacity:1;stroke:none;stroke-width:1px;stroke-linecap:butt;stroke-linejoin:miter;stroke-opacity:1"
       x="43.173462"
       y="1049.0559"
       id="text-action-run-5"
       sodipodi:linespacing="125%"
       inkscape:label="#text4673-4"><tspan
         sodipodi:role="line"
         id="tspan4675-1-3-6"
         x="43.173462"
         y="1049.0559"
         style="font-size:6.25px;fill:#00b006;fill-opacity:1">⚙</tspan></text>
    <text
       xml:space="preserve"
       style="font-style:normal;font-weight:normal;font-size:40px;line-height:125%;font-family:sans-serif;letter-spacing:0px;word-spacing:0px;fill:#00b006;fill-opacity:1;stroke:none;stroke-width:1px;stroke-linecap:butt;stroke-linejoin:miter;stroke-opacity:1"
       x="35.423462"
       y="1049.0559"
       id="text-action-run-3"
       sodipodi:linespacing="125%"
       inkscape:label="#text4673-54"><tspan
         sodipodi:role="line"
         id="tspan4675-4-9-5"
         x="35.423462"
         y="1049.0559"
         style="font-size:6.25px;fill:#00b006;fill-opacity:1">⚙</tspan></text>
    <path
       style="opacity:1;fill:url(#linearGradient7620);fill-opacity:1;stroke:#ff0000;stroke-width:0;stroke-linejoin:miter;stroke-miterlimit:4;stroke-dasharray:none;stroke-dashoffset:0;stroke-opacity:1;filter:url(#filter6168)"
       id="port-out-auto"
       sodipodi:type="arc"
       sodipodi:cx="99.432137"
       sodipodi:cy="1022.2058"
       sodipodi:rx="3.0262074"
       sodipodi:ry="7.6562529"
       sodipodi:start="4.712389"
       sodipodi:end="1.5707963"
       sodipodi:open="true"
       d="m 99.432137,1014.5496 a 3.0262074,7.6562529 0 0 1 3.026203,7.6562 3.0262074,7.6562529 0 0 1 -3.026203,7.6563"
       transform="matrix(0.58609091,0,0,1.0340543,41.395779,-34.634258)"
       inkscape:label="#path4262" />
    <path
       style="opacity:1;fill:url(#linearGradient7620-5);fill-opacity:1;stroke:#ff0000;stroke-width:0;stroke-linejoin:miter;stroke-miterlimit:4;stroke-dasharray:none;stroke-dashoffset:0;stroke-opacity:1;filter:url(#filter6168-4)"
       id="port-out-timed"
       sodipodi:type="arc"
       sodipodi:cx="99.432137"
       sodipodi:cy="1022.2058"
       sodipodi:rx="3.0262074"
       sodipodi:ry="7.6562529"
       sodipodi:start="4.712389"
       sodipodi:end="1.5707963"
       sodipodi:open="true"
       d="m 99.432137,1014.5496 a 3.0262074,7.6562529 0 0 1 3.026203,7.6562 3.0262074,7.6562529 0 0 1 -3.026203,7.6563"
       transform="matrix(-0.52743256,0,0,-1.0398393,52.771786,2085.3119)"
       inkscape:label="#path4262-0" />
    <path
       style="opacity:1;fill:url(#linearGradient7620-9);fill-opacity:1;stroke:#ff0000;stroke-width:0;stroke-linejoin:miter;stroke-miterlimit:4;stroke-dasharray:none;stroke-dashoffset:0;stroke-opacity:1;filter:url(#filter6168-9)"
       id="port-out-manual"
       sodipodi:type="arc"
       sodipodi:cx="99.432137"
       sodipodi:cy="1022.2058"
       sodipodi:rx="3.0262074"
       sodipodi:ry="7.6562529"
       sodipodi:start="4.712389"
       sodipodi:end="1.5707963"
       sodipodi:open="true"
       d="m 99.432137,1014.5496 a 3.0262074,7.6562529 0 0 1 3.026203,7.6562 3.0262074,7.6562529 0 0 1 -3.026203,7.6563"
       transform="matrix(0,0.49858214,-1.0428156,0,1115.8898,1002.4384)"
       inkscape:label="#path4262-6" />
    <path
       style="opacity:1;fill:url(#linearGradient7620-9-6);fill-opacity:1;stroke:#ff0000;stroke-width:0;stroke-linejoin:miter;stroke-miterlimit:4;stroke-dasharray:none;stroke-dashoffset:0;stroke-opacity:1;filter:url(#filter6168-9-2)"
       id="port-in"
       sodipodi:type="arc"
       sodipodi:cx="99.432137"
       sodipodi:cy="1022.2058"
       sodipodi:rx="3.0262074"
       sodipodi:ry="7.6562529"
       sodipodi:start="4.712389"
       sodipodi:end="1.5707963"
       sodipodi:open="true"
       d="m 99.432137,1014.5496 a 3.0262074,7.6562529 0 0 1 3.026203,7.6562 3.0262074,7.6562529 0 0 1 -3.026203,7.6563"
       transform="matrix(0,-0.36525586,3.9577572,0,-3995.6376,1029.6815)"
       inkscape:label="#path4262-6-6" />
    <rect
       style="opacity:1;fill:#ffffff;fill-opacity:1;stroke:none;stroke-width:1.89999998;stroke-miterlimit:4;stroke-dasharray:none;stroke-opacity:0.83333333"
       id="text-title-bbox"
       width="80"
       height="6.125"
       x="3.4999995"
       y="994.61218"
       ry="0"
       inkscape:label="#rect4275" />
    <text
       xml:space="preserve"
       style="font-style:normal;font-weight:normal;font-size:5.87349701px;line-height:125%;font-family:sans-serif;letter-spacing:0px;word-spacing:0px;fill:#de0000;fill-opacity:1;stroke:none;stroke-width:1px;stroke-linecap:butt;stroke-linejoin:miter;stroke-opacity:1"
       x="45.040825"
       y="967.0835"
       id="text-title"
       sodipodi:linespacing="125%"
       inkscape:label="#text4279"
       transform="scale(0.96724472,1.0338645)"><tspan
         sodipodi:role="line"
         x="45.040825"
         y="967.0835"
         id="tspan4281"><tspan
           x="45.040825"
           y="967.0835"
           style="font-size:5.50640297px;text-align:center;text-anchor:middle;fill:#de0000;fill-opacity:1"
           id="tspan4283">Titel der Statusnode xxxxxxx</tspan></tspan></text>
    <text
       xml:space="preserve"
       style="font-style:normal;font-weight:normal;font-size:40px;line-height:125%;font-family:sans-serif;letter-spacing:0px;word-spacing:0px;opacity:0.67299996;fill:#de0000;fill-opacity:1;stroke:none;stroke-width:1px;stroke-linecap:butt;stroke-linejoin:miter;stroke-opacity:1;"
       x="84.078125"
       y="1000.3622"
       id="text-title-ellipsis"
       sodipodi:linespacing="125%"
       inkscape:label="#text4279"><tspan
         sodipodi:role="line"
         id="tspan4282"
         x="84.078125"
         y="1000.3622"
         style="font-size:5.50640297px;fill:#de0000;fill-opacity:1;">...</tspan></text>
  </g>
</svg>
